<?xml version="1.0" encoding="UTF-8" standalone="no"?>
<!-- Generator: Adobe Illustrator 16.0.0, SVG Export Plug-In . SVG Version: 6.00 Build 0)  -->

<svg
   xmlns:dc="http://purl.org/dc/elements/1.1/"
   xmlns:cc="http://creativecommons.org/ns#"
   xmlns:rdf="http://www.w3.org/1999/02/22-rdf-syntax-ns#"
   xmlns:svg="http://www.w3.org/2000/svg"
   xmlns="http://www.w3.org/2000/svg"
   xmlns:sodipodi="http://sodipodi.sourceforge.net/DTD/sodipodi-0.dtd"
   xmlns:inkscape="http://www.inkscape.org/namespaces/inkscape"
   version="1.1"
   id="Capa_1"
   x="0px"
   y="0px"
   width="510px"
   height="510px"
   viewBox="0 0 510 510"
   style="enable-background:new 0 0 510 510;"
   xml:space="preserve"
   sodipodi:docname="heart_bronx.svg"
   inkscape:version="0.92.1 r15371"><metadata
     id="metadata3835"><rdf:RDF><cc:Work
         rdf:about=""><dc:format>image/svg+xml</dc:format><dc:type
           rdf:resource="http://purl.org/dc/dcmitype/StillImage" /></cc:Work></rdf:RDF></metadata><defs
     id="defs3833" /><sodipodi:namedview
     pagecolor="#ffffff"
     bordercolor="#666666"
     borderopacity="1"
     objecttolerance="10"
     gridtolerance="10"
     guidetolerance="10"
     inkscape:pageopacity="0"
     inkscape:pageshadow="2"
     inkscape:window-width="1762"
     inkscape:window-height="1086"
     id="namedview3831"
     showgrid="false"
     inkscape:zoom="1.7"
     inkscape:cx="255"
     inkscape:cy="255"
     inkscape:window-x="1678"
     inkscape:window-y="15"
     inkscape:window-maximized="0"
     inkscape:current-layer="Capa_1" /><g
     id="g3798"><g
       id="favorite"><path
         d="M255,489.6l-35.7-35.7C86.7,336.6,0,257.55,0,160.65C0,81.6,61.2,20.4,140.25,20.4c43.35,0,86.7,20.4,114.75,53.55    C283.05,40.8,326.4,20.4,369.75,20.4C448.8,20.4,510,81.6,510,160.65c0,96.9-86.7,175.95-219.3,293.25L255,489.6z"
         id="path3795" /></g></g><g
     id="g3800" /><g
     id="g3802" /><g
     id="g3804" /><g
     id="g3806" /><g
     id="g3808" /><g
     id="g3810" /><g
     id="g3812" /><g
     id="g3814" /><g
     id="g3816" /><g
     id="g3818" /><g
     id="g3820" /><g
     id="g3822" /><g
     id="g3824" /><g
     id="g3826" /><g
     id="g3828" /><path
     style="fill:#ff0000;stroke-width:0.58823532"
     d="m 238.81944,472.94812 c -9.71712,-9.75137 -24.93953,-24.01781 -39.2306,-36.7669 -49.45471,-44.11863 -68.91638,-62.19347 -94.0006,-87.30223 C 61.098659,304.34591 35.231321,270.90551 18.493735,236.28622 -4.3906721,188.95312 -5.8231058,140.13592 14.436028,98 21.143556,84.049365 29.190209,72.826386 40.831827,61.184768 62.422871,39.593724 87.975753,26.901986 119.70588,22.009188 c 9.49578,-1.464252 31.14462,-1.459636 40.58824,0.0087 35.99828,5.597001 69.33556,23.432055 92.24757,49.351368 L 255,74.150185 257.45989,71.36921 c 19.6945,-22.265188 48.66463,-39.483149 78.42246,-46.609225 12.85339,-3.077987 19.31034,-3.794612 34.11765,-3.786553 14.94693,0.0081 22.01344,0.785016 34.15199,3.754615 25.63004,6.270181 46.57312,18.01366 65.01618,36.456721 16.88603,16.88603 27.58025,34.808161 34.60391,57.991702 6.95496,22.95679 7.78161,50.06754 2.30482,75.58824 -8.21476,38.27907 -30.90573,77.1376 -71.60621,122.62643 -27.24066,30.44549 -58.09763,59.9564 -126.82363,121.29125 -12.18552,10.87503 -27.79304,25.5438 -36.76054,34.5495 -8.57124,8.60776 -15.72014,15.65046 -15.88644,15.65046 -0.1663,0 -7.44759,-7.1704 -16.18064,-15.93423 z"
     id="path3837"
     inkscape:connector-curvature="0" /></svg>